<svg width="269" height="24" viewBox="0 0 269 24" fill="none" xmlns="http://www.w3.org/2000/svg">
<path d="M21.0181 14.8356L20.7727 15.5444H20.7727L21.0181 14.8356ZM21.0181 9.16437L21.2635 9.8731V9.8731L21.0181 9.16437ZM2.98189 14.8356L3.22727 15.5444H3.22727L2.98189 14.8356ZM2.98189 9.16437L2.73652 9.8731L2.73652 9.8731L2.98189 9.16437ZM15.5303 9.53033C15.8232 9.23744 15.8232 8.76256 15.5303 8.46967C15.2374 8.17678 14.7626 8.17678 14.4697 8.46967L15.5303 9.53033ZM8.46967 14.4697C8.17678 14.7626 8.17678 15.2374 8.46967 15.5303C8.76256 15.8232 9.23744 15.8232 9.53033 15.5303L8.46967 14.4697ZM6 20.25C4.20507 20.25 2.75 18.7949 2.75 17H1.25C1.25 19.6234 3.37665 21.75 6 21.75V20.25ZM21.25 17C21.25 18.7949 19.7949 20.25 18 20.25V21.75C20.6234 21.75 22.75 19.6234 22.75 17H21.25ZM18 3.75C19.7949 3.75 21.25 5.20507 21.25 7H22.75C22.75 4.37665 20.6234 2.25 18 2.25V3.75ZM6 2.25C3.37665 2.25 1.25 4.37665 1.25 7H2.75C2.75 5.20507 4.20507 3.75 6 3.75V2.25ZM21.2635 14.1269C20.3815 13.8216 19.75 12.9836 19.75 12H18.25C18.25 13.6424 19.3054 15.0363 20.7727 15.5444L21.2635 14.1269ZM19.75 12C19.75 11.0164 20.3815 10.1784 21.2635 9.8731L20.7727 8.45565C19.3054 8.96367 18.25 10.3576 18.25 12H19.75ZM4.25 12C4.25 12.9836 3.61845 13.8216 2.73652 14.1269L3.22727 15.5444C4.69461 15.0363 5.75 13.6424 5.75 12H4.25ZM2.73652 9.8731C3.61845 10.1784 4.25 11.0164 4.25 12H5.75C5.75 10.3576 4.69462 8.96367 3.22727 8.45565L2.73652 9.8731ZM22.75 8V7H21.25V8H22.75ZM21.25 16V17H22.75V16H21.25ZM1.25 16V17H2.75V16H1.25ZM2.75 8V7H1.25V8H2.75ZM18 20.25H6V21.75H18V20.25ZM18 2.25H6V3.75H18V2.25ZM2.73652 14.1269C2.05785 14.3619 1.25 14.9975 1.25 16H2.75C2.75 15.9441 2.77081 15.8708 2.85172 15.7813C2.9366 15.6873 3.06974 15.5989 3.22727 15.5444L2.73652 14.1269ZM21.2635 9.8731C21.9422 9.63813 22.75 9.00246 22.75 8H21.25C21.25 8.05587 21.2292 8.12917 21.1483 8.21871C21.0634 8.31265 20.9303 8.40111 20.7727 8.45565L21.2635 9.8731ZM3.22727 8.45565C3.06974 8.40111 2.9366 8.31265 2.85172 8.21871C2.77081 8.12917 2.75 8.05587 2.75 8H1.25C1.25 9.00246 2.05785 9.63813 2.73652 9.8731L3.22727 8.45565ZM20.7727 15.5444C20.9303 15.5989 21.0634 15.6873 21.1483 15.7813C21.2292 15.8708 21.25 15.9441 21.25 16H22.75C22.75 14.9975 21.9422 14.3619 21.2635 14.1269L20.7727 15.5444ZM9.25 9C9.25 9.13807 9.13807 9.25 9 9.25V10.75C9.9665 10.75 10.75 9.9665 10.75 9H9.25ZM9 9.25C8.86193 9.25 8.75 9.13807 8.75 9H7.25C7.25 9.9665 8.0335 10.75 9 10.75V9.25ZM8.75 9C8.75 8.86193 8.86193 8.75 9 8.75V7.25C8.0335 7.25 7.25 8.0335 7.25 9H8.75ZM9 8.75C9.13807 8.75 9.25 8.86193 9.25 9H10.75C10.75 8.0335 9.9665 7.25 9 7.25V8.75ZM15.25 15C15.25 15.1381 15.1381 15.25 15 15.25V16.75C15.9665 16.75 16.75 15.9665 16.75 15H15.25ZM15 15.25C14.8619 15.25 14.75 15.1381 14.75 15H13.25C13.25 15.9665 14.0335 16.75 15 16.75V15.25ZM14.75 15C14.75 14.8619 14.8619 14.75 15 14.75V13.25C14.0335 13.25 13.25 14.0335 13.25 15H14.75ZM15 14.75C15.1381 14.75 15.25 14.8619 15.25 15H16.75C16.75 14.0335 15.9665 13.25 15 13.25V14.75ZM14.4697 8.46967L8.46967 14.4697L9.53033 15.5303L15.5303 9.53033L14.4697 8.46967Z" fill="#FEFEFE"/>
<path d="M40.848 17.1392C40.1321 17.1392 39.4957 17.0166 38.9389 16.7713C38.3854 16.526 37.9479 16.1847 37.6264 15.7472C37.3049 15.3097 37.1342 14.8042 37.1143 14.2308H38.9837C39.0002 14.5059 39.0914 14.7462 39.2571 14.9517C39.4228 15.1539 39.6432 15.3113 39.9183 15.424C40.1934 15.5367 40.5017 15.593 40.843 15.593C41.2076 15.593 41.5308 15.5301 41.8125 15.4041C42.0942 15.2749 42.3146 15.0959 42.4737 14.8672C42.6328 14.6385 42.7107 14.375 42.7074 14.0767C42.7107 13.7685 42.6312 13.4967 42.4688 13.2614C42.3063 13.026 42.071 12.8421 41.7628 12.7095C41.4579 12.5769 41.09 12.5107 40.6591 12.5107H39.7592V11.0888H40.6591C41.0137 11.0888 41.3236 11.0275 41.5888 10.9048C41.8572 10.7822 42.0677 10.6098 42.2202 10.3878C42.3726 10.1624 42.4472 9.90223 42.4439 9.60724C42.4472 9.31889 42.3826 9.06866 42.25 8.85653C42.1207 8.6411 41.9368 8.47372 41.6982 8.3544C41.4628 8.23508 41.1861 8.17543 40.8679 8.17543C40.5563 8.17543 40.268 8.23177 40.0028 8.34446C39.7377 8.45715 39.5239 8.6179 39.3615 8.8267C39.1991 9.0322 39.1129 9.27746 39.103 9.5625H37.3281C37.3414 8.99242 37.5054 8.49195 37.8203 8.06108C38.1385 7.62689 38.5627 7.28883 39.093 7.04688C39.6233 6.80161 40.2183 6.67898 40.8778 6.67898C41.5573 6.67898 42.1473 6.80658 42.6477 7.06179C43.1515 7.31368 43.541 7.65341 43.8161 8.08097C44.0911 8.50852 44.2287 8.98082 44.2287 9.49787C44.232 10.0713 44.063 10.5518 43.7216 10.9396C43.3835 11.3274 42.9394 11.581 42.3892 11.7003V11.7798C43.1051 11.8793 43.6536 12.1444 44.0348 12.5753C44.4193 13.0028 44.6098 13.5348 44.6065 14.1712C44.6065 14.7412 44.4441 15.2517 44.1193 15.7024C43.7978 16.1499 43.3537 16.5012 42.7869 16.7564C42.2235 17.0116 41.5772 17.1392 40.848 17.1392ZM50.0765 17.1939C49.2579 17.1939 48.5552 16.9867 47.9686 16.5724C47.3852 16.1548 46.9361 15.5533 46.6213 14.7678C46.3097 13.9789 46.1539 13.0294 46.1539 11.919C46.1573 10.8087 46.3147 9.86411 46.6262 9.08523C46.9411 8.30303 47.3902 7.70644 47.9735 7.29545C48.5602 6.88447 49.2612 6.67898 50.0765 6.67898C50.8919 6.67898 51.5929 6.88447 52.1795 7.29545C52.7662 7.70644 53.2153 8.30303 53.5268 9.08523C53.8417 9.86742 53.9991 10.812 53.9991 11.919C53.9991 13.0327 53.8417 13.9839 53.5268 14.7727C53.2153 15.5582 52.7662 16.1581 52.1795 16.5724C51.5962 16.9867 50.8952 17.1939 50.0765 17.1939ZM50.0765 15.6378C50.7129 15.6378 51.215 15.3246 51.5829 14.6982C51.9541 14.0684 52.1397 13.142 52.1397 11.919C52.1397 11.1103 52.0552 10.4309 51.8862 9.88068C51.7172 9.33049 51.4785 8.91619 51.1703 8.63778C50.862 8.35606 50.4975 8.2152 50.0765 8.2152C49.4435 8.2152 48.943 8.53007 48.5751 9.1598C48.2072 9.78622 48.0216 10.706 48.0183 11.919C48.015 12.7311 48.0962 13.4138 48.2619 13.9673C48.4309 14.5208 48.6696 14.9384 48.9778 15.2202C49.286 15.4986 49.6523 15.6378 50.0765 15.6378ZM61.0948 15.0909V14.554C61.0948 14.1596 61.1777 13.7966 61.3434 13.4652C61.5124 13.1338 61.7577 12.867 62.0792 12.6648C62.4007 12.4626 62.7901 12.3615 63.2475 12.3615C63.7182 12.3615 64.1126 12.4626 64.4308 12.6648C64.7489 12.8636 64.9892 13.1288 65.1516 13.4602C65.3174 13.7917 65.4002 14.1562 65.4002 14.554V15.0909C65.4002 15.4853 65.3174 15.8482 65.1516 16.1797C64.9859 16.5111 64.7423 16.7779 64.4208 16.9801C64.1026 17.1823 63.7115 17.2834 63.2475 17.2834C62.7835 17.2834 62.3907 17.1823 62.0692 16.9801C61.7478 16.7779 61.5041 16.5111 61.3384 16.1797C61.176 15.8482 61.0948 15.4853 61.0948 15.0909ZM62.3924 14.554V15.0909C62.3924 15.3527 62.4554 15.593 62.5813 15.8118C62.7073 16.0305 62.9293 16.1399 63.2475 16.1399C63.569 16.1399 63.7894 16.0322 63.9087 15.8168C64.0314 15.598 64.0927 15.3561 64.0927 15.0909V14.554C64.0927 14.2888 64.0347 14.0469 63.9187 13.8281C63.8027 13.6061 63.579 13.495 63.2475 13.495C62.936 13.495 62.7156 13.6061 62.5863 13.8281C62.457 14.0469 62.3924 14.2888 62.3924 14.554ZM55.9194 9.2642V8.72727C55.9194 8.32955 56.0039 7.96496 56.1729 7.63352C56.342 7.30208 56.5872 7.03693 56.9087 6.83807C57.2302 6.63589 57.6197 6.5348 58.0771 6.5348C58.5444 6.5348 58.9371 6.63589 59.2553 6.83807C59.5768 7.03693 59.8188 7.30208 59.9812 7.63352C60.1436 7.96496 60.2248 8.32955 60.2248 8.72727V9.2642C60.2248 9.66193 60.1419 10.0265 59.9762 10.358C59.8138 10.6861 59.5719 10.9496 59.2504 11.1484C58.9289 11.3473 58.5378 11.4467 58.0771 11.4467C57.6097 11.4467 57.2153 11.3473 56.8938 11.1484C56.5756 10.9496 56.3337 10.6844 56.168 10.353C56.0022 10.0215 55.9194 9.65862 55.9194 9.2642ZM57.2269 8.72727V9.2642C57.2269 9.52936 57.2882 9.77131 57.4109 9.99006C57.5368 10.2055 57.7589 10.3132 58.0771 10.3132C58.3952 10.3132 58.614 10.2055 58.7333 9.99006C58.8559 9.77131 58.9173 9.52936 58.9173 9.2642V8.72727C58.9173 8.46212 58.8593 8.22017 58.7433 8.00142C58.6272 7.77936 58.4052 7.66832 58.0771 7.66832C57.7622 7.66832 57.5418 7.77936 57.4158 8.00142C57.2899 8.22348 57.2269 8.46544 57.2269 8.72727ZM56.4862 17L63.4862 6.81818H64.729L57.729 17H56.4862ZM74.2869 17.1491C73.5412 17.1491 72.8949 16.9851 72.348 16.657C71.8011 16.3288 71.3769 15.8698 71.0753 15.2798C70.777 14.6899 70.6278 14.0005 70.6278 13.2116C70.6278 12.4228 70.777 11.7318 71.0753 11.1385C71.3769 10.5452 71.8011 10.0845 72.348 9.75639C72.8949 9.42827 73.5412 9.2642 74.2869 9.2642C75.0327 9.2642 75.679 9.42827 76.2259 9.75639C76.7727 10.0845 77.1953 10.5452 77.4936 11.1385C77.7952 11.7318 77.946 12.4228 77.946 13.2116C77.946 14.0005 77.7952 14.6899 77.4936 15.2798C77.1953 15.8698 76.7727 16.3288 76.2259 16.657C75.679 16.9851 75.0327 17.1491 74.2869 17.1491ZM74.2969 15.7074C74.7012 15.7074 75.0393 15.5964 75.3111 15.3743C75.5829 15.1489 75.785 14.8473 75.9176 14.4695C76.0535 14.0916 76.1214 13.6707 76.1214 13.2067C76.1214 12.7393 76.0535 12.3168 75.9176 11.9389C75.785 11.5578 75.5829 11.2545 75.3111 11.0291C75.0393 10.8037 74.7012 10.6911 74.2969 10.6911C73.8826 10.6911 73.5379 10.8037 73.2628 11.0291C72.991 11.2545 72.7872 11.5578 72.6513 11.9389C72.5187 12.3168 72.4524 12.7393 72.4524 13.2067C72.4524 13.6707 72.5187 14.0916 72.6513 14.4695C72.7872 14.8473 72.991 15.1489 73.2628 15.3743C73.5379 15.5964 73.8826 15.7074 74.2969 15.7074ZM83.3414 9.36364V10.7557H78.8272V9.36364H83.3414ZM79.9558 17V8.64276C79.9558 8.12902 80.0618 7.70147 80.274 7.36008C80.4894 7.0187 80.7778 6.76349 81.139 6.59446C81.5003 6.42543 81.9013 6.34091 82.3422 6.34091C82.6537 6.34091 82.9305 6.36577 83.1724 6.41548C83.4144 6.4652 83.5933 6.50994 83.7093 6.54972L83.3514 7.94176C83.2752 7.91856 83.179 7.89536 83.063 7.87216C82.947 7.84564 82.8178 7.83239 82.6752 7.83239C82.3405 7.83239 82.1035 7.91359 81.9643 8.07599C81.8284 8.23508 81.7605 8.46378 81.7605 8.76207V17H79.9558ZM88.6188 9.36364V10.7557H84.1046V9.36364H88.6188ZM85.2331 17V8.64276C85.2331 8.12902 85.3392 7.70147 85.5513 7.36008C85.7667 7.0187 86.0551 6.76349 86.4164 6.59446C86.7776 6.42543 87.1787 6.34091 87.6195 6.34091C87.931 6.34091 88.2078 6.36577 88.4498 6.41548C88.6917 6.4652 88.8707 6.50994 88.9867 6.54972L88.6287 7.94176C88.5525 7.91856 88.4564 7.89536 88.3404 7.87216C88.2244 7.84564 88.0951 7.83239 87.9526 7.83239C87.6178 7.83239 87.3809 7.91359 87.2417 8.07599C87.1058 8.23508 87.0378 8.46378 87.0378 8.76207V17H85.2331ZM99.5364 11.3821L97.8958 11.5611C97.8494 11.3954 97.7682 11.2396 97.6522 11.0938C97.5395 10.9479 97.387 10.8303 97.1948 10.7408C97.0025 10.6513 96.7672 10.6065 96.4888 10.6065C96.1143 10.6065 95.7994 10.6877 95.5442 10.8501C95.2923 11.0125 95.168 11.223 95.1713 11.4815C95.168 11.7036 95.2492 11.8842 95.415 12.0234C95.584 12.1626 95.8624 12.277 96.2502 12.3665L97.5527 12.6449C98.2753 12.8007 98.8122 13.0476 99.1635 13.3857C99.5182 13.7237 99.6971 14.1662 99.7005 14.7131C99.6971 15.1937 99.5563 15.6179 99.2779 15.9858C99.0028 16.3504 98.62 16.6354 98.1294 16.8409C97.6389 17.0464 97.0755 17.1491 96.4391 17.1491C95.5044 17.1491 94.7521 16.9536 94.182 16.5625C93.6119 16.1681 93.2722 15.6196 93.1628 14.9169L94.9178 14.7479C94.9973 15.0926 95.1664 15.3527 95.4249 15.5284C95.6834 15.7041 96.0198 15.7919 96.4341 15.7919C96.8617 15.7919 97.2047 15.7041 97.4632 15.5284C97.7251 15.3527 97.856 15.1357 97.856 14.8771C97.856 14.6584 97.7715 14.4777 97.6025 14.3352C97.4367 14.1927 97.1782 14.0833 96.8269 14.0071L95.5243 13.7337C94.7918 13.5812 94.2499 13.3243 93.8986 12.9631C93.5473 12.5985 93.3733 12.1378 93.3766 11.581C93.3733 11.1103 93.5009 10.7027 93.7594 10.358C94.0212 10.0099 94.3842 9.74148 94.8482 9.55256C95.3155 9.36032 95.8541 9.2642 96.464 9.2642C97.3588 9.2642 98.0632 9.45478 98.5769 9.83594C99.0939 10.2171 99.4138 10.7325 99.5364 11.3821ZM104.998 9.36364V10.7557H100.608V9.36364H104.998ZM101.692 7.53409H103.491V14.7031C103.491 14.9451 103.528 15.1307 103.601 15.2599C103.677 15.3859 103.776 15.4721 103.899 15.5185C104.022 15.5649 104.157 15.5881 104.307 15.5881C104.419 15.5881 104.522 15.5798 104.615 15.5632C104.711 15.5466 104.784 15.5317 104.834 15.5185L105.137 16.9254C105.041 16.9586 104.903 16.995 104.724 17.0348C104.549 17.0746 104.333 17.0978 104.078 17.1044C103.627 17.1177 103.221 17.0497 102.86 16.9006C102.499 16.7481 102.212 16.5128 102 16.1946C101.791 15.8764 101.688 15.4787 101.692 15.0014V7.53409ZM109.752 17.1491C109.006 17.1491 108.36 16.9851 107.813 16.657C107.266 16.3288 106.842 15.8698 106.54 15.2798C106.242 14.6899 106.093 14.0005 106.093 13.2116C106.093 12.4228 106.242 11.7318 106.54 11.1385C106.842 10.5452 107.266 10.0845 107.813 9.75639C108.36 9.42827 109.006 9.2642 109.752 9.2642C110.498 9.2642 111.144 9.42827 111.691 9.75639C112.238 10.0845 112.66 10.5452 112.958 11.1385C113.26 11.7318 113.411 12.4228 113.411 13.2116C113.411 14.0005 113.26 14.6899 112.958 15.2798C112.66 15.8698 112.238 16.3288 111.691 16.657C111.144 16.9851 110.498 17.1491 109.752 17.1491ZM109.762 15.7074C110.166 15.7074 110.504 15.5964 110.776 15.3743C111.048 15.1489 111.25 14.8473 111.382 14.4695C111.518 14.0916 111.586 13.6707 111.586 13.2067C111.586 12.7393 111.518 12.3168 111.382 11.9389C111.25 11.5578 111.048 11.2545 110.776 11.0291C110.504 10.8037 110.166 10.6911 109.762 10.6911C109.347 10.6911 109.003 10.8037 108.728 11.0291C108.456 11.2545 108.252 11.5578 108.116 11.9389C107.984 12.3168 107.917 12.7393 107.917 13.2067C107.917 13.6707 107.984 14.0916 108.116 14.4695C108.252 14.8473 108.456 15.1489 108.728 15.3743C109.003 15.5964 109.347 15.7074 109.762 15.7074ZM114.938 17V9.36364H116.683V10.6364H116.763C116.902 10.1955 117.141 9.85582 117.479 9.61719C117.82 9.37524 118.21 9.25426 118.647 9.25426C118.747 9.25426 118.858 9.25923 118.98 9.26918C119.106 9.2758 119.211 9.2874 119.294 9.30398V10.9595C119.217 10.933 119.096 10.9098 118.931 10.8899C118.768 10.8667 118.611 10.8551 118.458 10.8551C118.13 10.8551 117.835 10.9264 117.573 11.0689C117.315 11.2081 117.111 11.402 116.962 11.6506C116.813 11.8991 116.738 12.1858 116.738 12.5107V17H114.938ZM123.555 17.1491C122.79 17.1491 122.129 16.9901 121.572 16.6719C121.018 16.3504 120.592 15.8963 120.294 15.3097C119.996 14.7197 119.847 14.0253 119.847 13.2266C119.847 12.4411 119.996 11.7517 120.294 11.1584C120.596 10.5618 121.017 10.0978 121.557 9.76633C122.097 9.43158 122.732 9.2642 123.461 9.2642C123.932 9.2642 124.376 9.34044 124.793 9.4929C125.214 9.64205 125.585 9.87405 125.907 10.1889C126.232 10.5038 126.487 10.9048 126.673 11.392C126.858 11.8759 126.951 12.4527 126.951 13.1222V13.674H120.692V12.4609H125.226C125.223 12.1162 125.148 11.8097 125.002 11.5412C124.856 11.2694 124.652 11.0556 124.391 10.8999C124.132 10.7441 123.83 10.6662 123.486 10.6662C123.118 10.6662 122.795 10.7557 122.516 10.9347C122.238 11.1103 122.021 11.3423 121.865 11.6307C121.713 11.9157 121.635 12.2289 121.631 12.5703V13.6293C121.631 14.0734 121.713 14.4545 121.875 14.7727C122.037 15.0876 122.264 15.3295 122.556 15.4986C122.848 15.6643 123.189 15.7472 123.58 15.7472C123.842 15.7472 124.079 15.7107 124.291 15.6378C124.503 15.5616 124.687 15.4505 124.843 15.3047C124.999 15.1589 125.116 14.9782 125.196 14.7628L126.876 14.9517C126.77 15.3958 126.568 15.7836 126.27 16.1151C125.975 16.4432 125.597 16.6984 125.136 16.8807C124.676 17.0597 124.149 17.1491 123.555 17.1491ZM130.009 17L127.851 9.36364H129.685L131.028 14.733H131.097L132.469 9.36364H134.284L135.656 14.7031H135.731L137.053 9.36364H138.893L136.73 17H134.856L133.424 11.8395H133.32L131.888 17H130.009ZM140.149 17V9.36364H141.949V17H140.149ZM141.054 8.27983C140.769 8.27983 140.524 8.18537 140.318 7.99645C140.113 7.80421 140.01 7.57386 140.01 7.3054C140.01 7.03362 140.113 6.80327 140.318 6.61435C140.524 6.42211 140.769 6.32599 141.054 6.32599C141.343 6.32599 141.588 6.42211 141.79 6.61435C141.995 6.80327 142.098 7.03362 142.098 7.3054C142.098 7.57386 141.995 7.80421 141.79 7.99645C141.588 8.18537 141.343 8.27983 141.054 8.27983ZM146.634 17.1342C146.034 17.1342 145.497 16.9801 145.023 16.6719C144.549 16.3636 144.174 15.9162 143.899 15.3295C143.624 14.7429 143.487 14.0303 143.487 13.1918C143.487 12.3433 143.626 11.6274 143.904 11.044C144.186 10.4574 144.565 10.0149 145.043 9.71662C145.52 9.41501 146.052 9.2642 146.638 9.2642C147.086 9.2642 147.454 9.34044 147.742 9.4929C148.031 9.64205 148.259 9.82268 148.428 10.0348C148.597 10.2436 148.728 10.4408 148.821 10.6264H148.896V6.81818H150.7V17H148.93V15.7969H148.821C148.728 15.9825 148.594 16.1797 148.418 16.3885C148.243 16.594 148.011 16.7696 147.722 16.9155C147.434 17.0613 147.071 17.1342 146.634 17.1342ZM147.136 15.6577C147.517 15.6577 147.842 15.5549 148.11 15.3494C148.379 15.1406 148.582 14.8506 148.722 14.4794C148.861 14.1082 148.93 13.6757 148.93 13.1818C148.93 12.688 148.861 12.2588 148.722 11.8942C148.586 11.5296 148.384 11.2462 148.115 11.044C147.85 10.8419 147.523 10.7408 147.136 10.7408C146.735 10.7408 146.4 10.8452 146.131 11.054C145.863 11.2628 145.661 11.5511 145.525 11.919C145.389 12.2869 145.321 12.7079 145.321 13.1818C145.321 13.6591 145.389 14.085 145.525 14.4595C145.664 14.8307 145.868 15.1241 146.136 15.3395C146.408 15.5516 146.741 15.6577 147.136 15.6577ZM155.999 17.1491C155.233 17.1491 154.572 16.9901 154.015 16.6719C153.462 16.3504 153.036 15.8963 152.737 15.3097C152.439 14.7197 152.29 14.0253 152.29 13.2266C152.29 12.4411 152.439 11.7517 152.737 11.1584C153.039 10.5618 153.46 10.0978 154 9.76633C154.54 9.43158 155.175 9.2642 155.904 9.2642C156.375 9.2642 156.819 9.34044 157.237 9.4929C157.658 9.64205 158.029 9.87405 158.35 10.1889C158.675 10.5038 158.93 10.9048 159.116 11.392C159.302 11.8759 159.394 12.4527 159.394 13.1222V13.674H153.135V12.4609H157.669C157.666 12.1162 157.591 11.8097 157.445 11.5412C157.3 11.2694 157.096 11.0556 156.834 10.8999C156.575 10.7441 156.274 10.6662 155.929 10.6662C155.561 10.6662 155.238 10.7557 154.96 10.9347C154.681 11.1103 154.464 11.3423 154.308 11.6307C154.156 11.9157 154.078 12.2289 154.075 12.5703V13.6293C154.075 14.0734 154.156 14.4545 154.318 14.7727C154.481 15.0876 154.708 15.3295 154.999 15.4986C155.291 15.6643 155.633 15.7472 156.024 15.7472C156.285 15.7472 156.522 15.7107 156.735 15.6378C156.947 15.5616 157.131 15.4505 157.286 15.3047C157.442 15.1589 157.56 14.9782 157.639 14.7628L159.32 14.9517C159.214 15.3958 159.012 15.7836 158.713 16.1151C158.418 16.4432 158.04 16.6984 157.58 16.8807C157.119 17.0597 156.592 17.1491 155.999 17.1491ZM177.465 11.1683V12.6499H163.465V11.1683H177.465ZM181.942 17V6.81818H183.786V15.4538H188.271V17H181.942ZM189.792 17V9.36364H191.592V17H189.792ZM190.697 8.27983C190.412 8.27983 190.166 8.18537 189.961 7.99645C189.755 7.80421 189.653 7.57386 189.653 7.3054C189.653 7.03362 189.755 6.80327 189.961 6.61435C190.166 6.42211 190.412 6.32599 190.697 6.32599C190.985 6.32599 191.23 6.42211 191.433 6.61435C191.638 6.80327 191.741 7.03362 191.741 7.3054C191.741 7.57386 191.638 7.80421 191.433 7.99645C191.23 8.18537 190.985 8.27983 190.697 8.27983ZM193.442 17V9.36364H195.162V10.6612H195.252C195.411 10.2237 195.675 9.88234 196.042 9.63707C196.41 9.38849 196.849 9.2642 197.36 9.2642C197.877 9.2642 198.313 9.39015 198.667 9.64205C199.025 9.89062 199.277 10.2304 199.423 10.6612H199.503C199.672 10.237 199.957 9.89891 200.358 9.64702C200.762 9.39181 201.241 9.2642 201.795 9.2642C202.497 9.2642 203.071 9.48627 203.515 9.9304C203.959 10.3745 204.181 11.0225 204.181 11.8743V17H202.376V12.1527C202.376 11.6787 202.25 11.3324 201.998 11.1136C201.747 10.8916 201.438 10.7805 201.074 10.7805C200.64 10.7805 200.3 10.9164 200.055 11.1882C199.813 11.4567 199.692 11.8063 199.692 12.2372V17H197.927V12.0781C197.927 11.6837 197.807 11.3688 197.569 11.1335C197.333 10.8982 197.025 10.7805 196.644 10.7805C196.385 10.7805 196.15 10.8468 195.938 10.9794C195.726 11.1087 195.557 11.2926 195.431 11.5312C195.305 11.7666 195.242 12.0417 195.242 12.3565V17H193.442ZM206.007 17V9.36364H207.806V17H206.007ZM206.912 8.27983C206.627 8.27983 206.381 8.18537 206.176 7.99645C205.97 7.80421 205.868 7.57386 205.868 7.3054C205.868 7.03362 205.97 6.80327 206.176 6.61435C206.381 6.42211 206.627 6.32599 206.912 6.32599C207.2 6.32599 207.445 6.42211 207.647 6.61435C207.853 6.80327 207.956 7.03362 207.956 7.3054C207.956 7.57386 207.853 7.80421 207.647 7.99645C207.445 8.18537 207.2 8.27983 206.912 8.27983ZM213.47 9.36364V10.7557H209.08V9.36364H213.47ZM210.164 7.53409H211.964V14.7031C211.964 14.9451 212 15.1307 212.073 15.2599C212.15 15.3859 212.249 15.4721 212.372 15.5185C212.494 15.5649 212.63 15.5881 212.779 15.5881C212.892 15.5881 212.995 15.5798 213.088 15.5632C213.184 15.5466 213.257 15.5317 213.306 15.5185L213.61 16.9254C213.513 16.9586 213.376 16.995 213.197 17.0348C213.021 17.0746 212.806 17.0978 212.551 17.1044C212.1 17.1177 211.694 17.0497 211.333 16.9006C210.971 16.7481 210.685 16.5128 210.472 16.1946C210.264 15.8764 210.161 15.4787 210.164 15.0014V7.53409ZM218.274 17.1491C217.509 17.1491 216.847 16.9901 216.29 16.6719C215.737 16.3504 215.311 15.8963 215.013 15.3097C214.714 14.7197 214.565 14.0253 214.565 13.2266C214.565 12.4411 214.714 11.7517 215.013 11.1584C215.314 10.5618 215.735 10.0978 216.276 9.76633C216.816 9.43158 217.451 9.2642 218.18 9.2642C218.65 9.2642 219.094 9.34044 219.512 9.4929C219.933 9.64205 220.304 9.87405 220.626 10.1889C220.951 10.5038 221.206 10.9048 221.391 11.392C221.577 11.8759 221.67 12.4527 221.67 13.1222V13.674H215.411V12.4609H219.945C219.941 12.1162 219.867 11.8097 219.721 11.5412C219.575 11.2694 219.371 11.0556 219.109 10.8999C218.851 10.7441 218.549 10.6662 218.205 10.6662C217.837 10.6662 217.513 10.7557 217.235 10.9347C216.957 11.1103 216.74 11.3423 216.584 11.6307C216.431 11.9157 216.353 12.2289 216.35 12.5703V13.6293C216.35 14.0734 216.431 14.4545 216.594 14.7727C216.756 15.0876 216.983 15.3295 217.275 15.4986C217.567 15.6643 217.908 15.7472 218.299 15.7472C218.561 15.7472 218.798 15.7107 219.01 15.6378C219.222 15.5616 219.406 15.4505 219.562 15.3047C219.718 15.1589 219.835 14.9782 219.915 14.7628L221.595 14.9517C221.489 15.3958 221.287 15.7836 220.989 16.1151C220.694 16.4432 220.316 16.6984 219.855 16.8807C219.394 17.0597 218.867 17.1491 218.274 17.1491ZM226.026 17.1342C225.426 17.1342 224.889 16.9801 224.415 16.6719C223.941 16.3636 223.567 15.9162 223.292 15.3295C223.017 14.7429 222.879 14.0303 222.879 13.1918C222.879 12.3433 223.018 11.6274 223.297 11.044C223.578 10.4574 223.958 10.0149 224.435 9.71662C224.912 9.41501 225.444 9.2642 226.031 9.2642C226.479 9.2642 226.846 9.34044 227.135 9.4929C227.423 9.64205 227.652 9.82268 227.821 10.0348C227.99 10.2436 228.121 10.4408 228.214 10.6264H228.288V6.81818H230.093V17H228.323V15.7969H228.214C228.121 15.9825 227.987 16.1797 227.811 16.3885C227.635 16.594 227.403 16.7696 227.115 16.9155C226.827 17.0613 226.464 17.1342 226.026 17.1342ZM226.528 15.6577C226.909 15.6577 227.234 15.5549 227.503 15.3494C227.771 15.1406 227.975 14.8506 228.114 14.4794C228.253 14.1082 228.323 13.6757 228.323 13.1818C228.323 12.688 228.253 12.2588 228.114 11.8942C227.978 11.5296 227.776 11.2462 227.508 11.044C227.242 10.8419 226.916 10.7408 226.528 10.7408C226.127 10.7408 225.792 10.8452 225.524 11.054C225.256 11.2628 225.053 11.5511 224.917 11.919C224.782 12.2869 224.714 12.7079 224.714 13.1818C224.714 13.6591 224.782 14.085 224.917 14.4595C225.057 14.8307 225.26 15.1241 225.529 15.3395C225.801 15.5516 226.134 15.6577 226.528 15.6577ZM239.297 9.36364V10.7557H234.907V9.36364H239.297ZM235.99 7.53409H237.79V14.7031C237.79 14.9451 237.827 15.1307 237.9 15.2599C237.976 15.3859 238.075 15.4721 238.198 15.5185C238.32 15.5649 238.456 15.5881 238.605 15.5881C238.718 15.5881 238.821 15.5798 238.914 15.5632C239.01 15.5466 239.083 15.5317 239.132 15.5185L239.436 16.9254C239.34 16.9586 239.202 16.995 239.023 17.0348C238.847 17.0746 238.632 17.0978 238.377 17.1044C237.926 17.1177 237.52 17.0497 237.159 16.9006C236.797 16.7481 236.511 16.5128 236.299 16.1946C236.09 15.8764 235.987 15.4787 235.99 15.0014V7.53409ZM240.802 17V9.36364H242.601V17H240.802ZM241.706 8.27983C241.421 8.27983 241.176 8.18537 240.971 7.99645C240.765 7.80421 240.662 7.57386 240.662 7.3054C240.662 7.03362 240.765 6.80327 240.971 6.61435C241.176 6.42211 241.421 6.32599 241.706 6.32599C241.995 6.32599 242.24 6.42211 242.442 6.61435C242.648 6.80327 242.751 7.03362 242.751 7.3054C242.751 7.57386 242.648 7.80421 242.442 7.99645C242.24 8.18537 241.995 8.27983 241.706 8.27983ZM244.452 17V9.36364H246.172V10.6612H246.262C246.421 10.2237 246.684 9.88234 247.052 9.63707C247.42 9.38849 247.859 9.2642 248.37 9.2642C248.887 9.2642 249.323 9.39015 249.677 9.64205C250.035 9.89062 250.287 10.2304 250.433 10.6612H250.512C250.681 10.237 250.967 9.89891 251.368 9.64702C251.772 9.39181 252.251 9.2642 252.804 9.2642C253.507 9.2642 254.08 9.48627 254.525 9.9304C254.969 10.3745 255.191 11.0225 255.191 11.8743V17H253.386V12.1527C253.386 11.6787 253.26 11.3324 253.008 11.1136C252.756 10.8916 252.448 10.7805 252.083 10.7805C251.649 10.7805 251.31 10.9164 251.064 11.1882C250.822 11.4567 250.701 11.8063 250.701 12.2372V17H248.936V12.0781C248.936 11.6837 248.817 11.3688 248.578 11.1335C248.343 10.8982 248.035 10.7805 247.654 10.7805C247.395 10.7805 247.16 10.8468 246.948 10.9794C246.736 11.1087 246.567 11.2926 246.441 11.5312C246.315 11.7666 246.252 12.0417 246.252 12.3565V17H244.452ZM260.397 17.1491C259.632 17.1491 258.97 16.9901 258.414 16.6719C257.86 16.3504 257.434 15.8963 257.136 15.3097C256.838 14.7197 256.688 14.0253 256.688 13.2266C256.688 12.4411 256.838 11.7517 257.136 11.1584C257.437 10.5618 257.858 10.0978 258.399 9.76633C258.939 9.43158 259.574 9.2642 260.303 9.2642C260.773 9.2642 261.218 9.34044 261.635 9.4929C262.056 9.64205 262.427 9.87405 262.749 10.1889C263.074 10.5038 263.329 10.9048 263.514 11.392C263.7 11.8759 263.793 12.4527 263.793 13.1222V13.674H257.534V12.4609H262.068C262.064 12.1162 261.99 11.8097 261.844 11.5412C261.698 11.2694 261.494 11.0556 261.232 10.8999C260.974 10.7441 260.672 10.6662 260.328 10.6662C259.96 10.6662 259.637 10.7557 259.358 10.9347C259.08 11.1103 258.863 11.3423 258.707 11.6307C258.554 11.9157 258.477 12.2289 258.473 12.5703V13.6293C258.473 14.0734 258.554 14.4545 258.717 14.7727C258.879 15.0876 259.106 15.3295 259.398 15.4986C259.69 15.6643 260.031 15.7472 260.422 15.7472C260.684 15.7472 260.921 15.7107 261.133 15.6378C261.345 15.5616 261.529 15.4505 261.685 15.3047C261.841 15.1589 261.958 14.9782 262.038 14.7628L263.718 14.9517C263.612 15.3958 263.41 15.7836 263.112 16.1151C262.817 16.4432 262.439 16.6984 261.978 16.8807C261.517 17.0597 260.99 17.1491 260.397 17.1491ZM267.518 6.81818L267.354 14.0071H265.753L265.594 6.81818H267.518ZM266.553 17.1094C266.252 17.1094 265.993 17.0033 265.778 16.7912C265.566 16.5791 265.46 16.3205 265.46 16.0156C265.46 15.7173 265.566 15.4621 265.778 15.25C265.993 15.0379 266.252 14.9318 266.553 14.9318C266.848 14.9318 267.103 15.0379 267.319 15.25C267.538 15.4621 267.647 15.7173 267.647 16.0156C267.647 16.2178 267.596 16.4018 267.493 16.5675C267.393 16.7332 267.261 16.8658 267.095 16.9652C266.933 17.0613 266.752 17.1094 266.553 17.1094Z" fill="white"/>
</svg>
