<?xml version="1.0" encoding="utf-8"?><svg viewBox="0 0 269 27" xmlns="http://www.w3.org/2000/svg" xmlns:xlink="http://www.w3.org/1999/xlink"><style>:root>svg{display:none}:root>svg:target{display:block}</style><svg viewBox="0 0 20 20" id="arrow-right" xmlns="http://www.w3.org/2000/svg"><path d="M4.167 10h11.666m-5 5l5-5m-5-5l5 5"/></svg><svg viewBox="0 0 24 24" id="badge" xmlns="http://www.w3.org/2000/svg"><path d="M9 6v1a3 3 0 106 0V6"/><path d="M15.612 3H8.389a4 4 0 00-3.946 3.342l-1.667 10A4 4 0 006.722 21h10.556a4 4 0 003.946-4.658l-1.667-10A4 4 0 0015.612 3z"/></svg><svg viewBox="0 0 20 20" id="close" xmlns="http://www.w3.org/2000/svg"><path fill-rule="evenodd" clip-rule="evenodd" d="M15.442 5.442a.625.625 0 10-.884-.884L10 9.116 5.442 4.558a.625.625 0 10-.884.884L9.116 10l-4.558 4.558a.625.625 0 10.884.884L10 10.884l4.558 4.558a.625.625 0 10.884-.884L10.884 10l4.558-4.558z"/></svg><svg viewBox="0 0 91 24" id="content" xmlns="http://www.w3.org/2000/svg"><path d="M6.672 9.493a1.452 1.452 0 00-.656-1.094c-.385-.262-.869-.393-1.452-.393-.418 0-.779.067-1.084.2a1.653 1.653 0 00-.71.536 1.267 1.267 0 00-.25.77c0 .243.057.452.17.627.116.176.266.323.452.443.189.116.391.213.607.293.215.076.422.14.621.189l.994.258c.325.08.658.188 1 .324.341.135.658.314.95.536.29.223.526.498.705.826.182.328.274.72.274 1.178 0 .577-.15 1.089-.448 1.536-.295.448-.724.8-1.287 1.06-.56.258-1.238.387-2.034.387-.762 0-1.422-.12-1.979-.363-.556-.242-.992-.585-1.307-1.029-.315-.447-.489-.978-.522-1.59h1.541c.03.367.15.674.358.919.212.242.482.422.81.542.332.116.695.174 1.09.174.433 0 .82-.068 1.158-.204.341-.14.61-.332.805-.577.196-.248.293-.538.293-.87 0-.301-.086-.548-.258-.74a1.911 1.911 0 00-.691-.478 6.758 6.758 0 00-.98-.333l-1.203-.328c-.815-.222-1.461-.549-1.939-.98-.474-.43-.71-1-.71-1.71 0-.586.158-1.098.477-1.536a3.134 3.134 0 011.292-1.02c.544-.244 1.157-.367 1.84-.367.69 0 1.297.12 1.824.363.53.242.948.575 1.253 1 .305.42.464.904.477 1.45H6.672zm4.824 2.973V17h-1.487V6.818h1.467v3.789h.094c.18-.412.453-.738.82-.98.368-.242.849-.363 1.442-.363.524 0 .981.108 1.372.323.395.216.7.537.915.965.219.424.328.954.328 1.59V17h-1.486v-4.678c0-.56-.144-.995-.433-1.303-.288-.311-.69-.467-1.203-.467-.351 0-.666.074-.944.224a1.603 1.603 0 00-.652.656c-.156.285-.233.63-.233 1.034zm10.152 4.688c-.716 0-1.341-.164-1.875-.492a3.317 3.317 0 01-1.243-1.377c-.295-.59-.442-1.28-.442-2.068 0-.793.147-1.485.442-2.079a3.311 3.311 0 011.243-1.382c.534-.328 1.159-.492 1.875-.492.715 0 1.34.164 1.874.492.534.329.948.79 1.243 1.383.295.593.442 1.286.442 2.078 0 .788-.147 1.478-.442 2.068a3.317 3.317 0 01-1.243 1.377c-.534.328-1.159.492-1.874.492zm.005-1.248c.463 0 .848-.122 1.153-.368a2.15 2.15 0 00.676-.98c.15-.407.224-.856.224-1.346 0-.488-.075-.935-.224-1.343a2.187 2.187 0 00-.676-.989c-.305-.249-.69-.373-1.154-.373-.467 0-.855.124-1.163.373a2.22 2.22 0 00-.68.99 3.958 3.958 0 00-.22 1.342c0 .49.073.94.22 1.347.148.408.375.734.68.98.308.245.696.367 1.163.367zm5.213 3.958v-10.5h1.452v1.238h.124c.087-.16.21-.344.373-.552a2.11 2.11 0 01.676-.547c.289-.16.67-.239 1.144-.239.616 0 1.167.156 1.65.468.484.311.864.76 1.139 1.347.278.586.418 1.292.418 2.118 0 .825-.138 1.533-.413 2.123-.275.586-.653 1.039-1.134 1.357a2.932 2.932 0 01-1.645.472c-.464 0-.844-.078-1.139-.233a2.155 2.155 0 01-.686-.547 4.142 4.142 0 01-.383-.557h-.089v4.052h-1.487zm1.457-6.682c0 .537.078 1.007.234 1.412.156.404.381.72.676.95.295.225.656.337 1.084.337.444 0 .815-.117 1.113-.353a2.19 2.19 0 00.676-.97c.156-.407.234-.866.234-1.376 0-.504-.076-.956-.229-1.357a2.077 2.077 0 00-.676-.95c-.298-.232-.67-.348-1.118-.348-.431 0-.796.111-1.094.333-.295.222-.519.532-.671.93-.153.398-.229.862-.229 1.392zM47.55 6.818V17h-1.412l-5.176-7.467h-.094V17H39.33V6.818h1.422l5.18 7.478h.095V6.818h1.522zm5.338 10.336c-.716 0-1.34-.164-1.874-.492a3.319 3.319 0 01-1.243-1.377c-.295-.59-.443-1.28-.443-2.068 0-.793.148-1.485.443-2.079a3.312 3.312 0 011.242-1.382c.534-.328 1.159-.492 1.875-.492s1.34.164 1.874.492c.534.329.948.79 1.243 1.383.295.593.442 1.286.442 2.078 0 .788-.147 1.478-.442 2.068a3.319 3.319 0 01-1.243 1.377c-.534.328-1.158.492-1.874.492zm.005-1.248c.464 0 .848-.122 1.153-.368a2.15 2.15 0 00.676-.98c.15-.407.224-.856.224-1.346 0-.488-.075-.935-.224-1.343a2.187 2.187 0 00-.676-.989c-.305-.249-.69-.373-1.153-.373-.468 0-.855.124-1.164.373a2.221 2.221 0 00-.68.99 3.96 3.96 0 00-.22 1.342c0 .49.074.94.22 1.347.148.408.376.734.68.98.309.245.696.367 1.164.367zM59.53 17l-2.247-7.636h1.536l1.496 5.608h.075l1.501-5.608h1.537l1.491 5.583h.075l1.486-5.583h1.536L65.774 17h-1.516l-1.551-5.514h-.115L61.042 17H59.53zM76.75 12h10.5m-4.5 4.5l4.5-4.5m-4.5-4.5l4.5 4.5"/></svg><svg viewBox="0 0 11 6" id="down" xmlns="http://www.w3.org/2000/svg"><path d="M1.204.75l4.5 4.5 4.5-4.5"/></svg><svg viewBox="0 0 24 24" id="facebook" xmlns="http://www.w3.org/2000/svg"><path d="M18 3h-3a5 5 0 00-5 5v2H6v4h4v7h4v-7h4v-4h-4V8a1 1 0 011-1h3V3z"/></svg><svg viewBox="0 0 24 24" id="instagram" xmlns="http://www.w3.org/2000/svg"><rect x="2" y="2" width="20" height="20" rx="4"/><circle cx="18" cy="6" r="1"/><circle cx="12" cy="12" r="5"/></svg><svg viewBox="0 0 105 27" id="logo" xmlns="http://www.w3.org/2000/svg"><path d="M1.662 6.824c.096-1.488.664-2.648 1.704-3.48 1.056-.832 2.4-1.248 4.032-1.248 1.12 0 2.088.2 2.904.6.816.4 1.431.944 1.848 1.632.415.688.623 1.464.623 2.328 0 .992-.264 1.84-.791 2.544-.528.704-1.16 1.176-1.896 1.416v.096c.944.288 1.68.816 2.207 1.584.529.752.793 1.72.793 2.904 0 .944-.216 1.784-.649 2.52-.431.736-1.071 1.32-1.92 1.752-.847.416-1.863.624-3.047.624-1.728 0-3.152-.44-4.272-1.32-1.104-.896-1.696-2.176-1.776-3.84h2.64c.064.848.392 1.544.984 2.088.592.528 1.392.792 2.4.792.976 0 1.728-.264 2.256-.792.527-.544.791-1.24.791-2.088 0-1.12-.36-1.912-1.08-2.376-.703-.48-1.791-.72-3.263-.72h-.624V9.584h.648c1.296-.016 2.28-.232 2.952-.648.688-.416 1.032-1.072 1.032-1.968 0-.768-.248-1.376-.744-1.824-.496-.464-1.2-.696-2.112-.696-.896 0-1.592.232-2.088.696a2.712 2.712 0 00-.888 1.68H1.662zM19.055 2.24V20H16.32V2.24h2.735zm15.713 10.824c0 .496-.032.944-.096 1.344H24.568c.08 1.056.472 1.904 1.176 2.544.704.64 1.568.96 2.592.96 1.472 0 2.512-.616 3.12-1.848h2.952c-.4 1.216-1.128 2.216-2.184 3-1.04.768-2.336 1.152-3.888 1.152-1.264 0-2.4-.28-3.408-.84a6.278 6.278 0 01-2.352-2.4c-.56-1.04-.84-2.24-.84-3.6 0-1.36.272-2.552.816-3.576.56-1.04 1.336-1.84 2.328-2.4 1.008-.56 2.16-.84 3.456-.84 1.248 0 2.36.272 3.336.816a5.746 5.746 0 012.28 2.304c.544.976.816 2.104.816 3.384zm-2.856-.864c-.016-1.008-.376-1.816-1.08-2.424-.704-.608-1.576-.912-2.616-.912-.944 0-1.752.304-2.424.912-.672.592-1.072 1.4-1.2 2.424h7.32zm10.876-5.64c1.024 0 1.928.208 2.712.624.8.4 1.424.904 1.872 1.512v-1.92h2.76v13.44c0 1.216-.256 2.296-.768 3.24a5.51 5.51 0 01-2.232 2.256c-.96.544-2.112.816-3.456.816-1.792 0-3.28-.424-4.464-1.272-1.184-.832-1.856-1.968-2.016-3.408h2.712c.208.688.648 1.24 1.32 1.656.688.432 1.504.648 2.448.648 1.104 0 1.992-.336 2.664-1.008.688-.672 1.032-1.648 1.032-2.928v-2.208c-.464.624-1.096 1.152-1.896 1.584-.784.416-1.68.624-2.688.624a6.042 6.042 0 01-3.168-.864c-.944-.592-1.696-1.408-2.256-2.448-.544-1.056-.816-2.248-.816-3.576 0-1.328.272-2.504.816-3.528.56-1.024 1.312-1.816 2.256-2.376a6.042 6.042 0 013.168-.864zm4.584 6.816c0-.912-.192-1.704-.576-2.376-.368-.672-.856-1.184-1.464-1.536a3.862 3.862 0 00-1.968-.528c-.704 0-1.36.176-1.968.528-.608.336-1.104.84-1.488 1.512-.368.656-.552 1.44-.552 2.352 0 .912.184 1.712.552 2.4.384.688.88 1.216 1.488 1.584.624.352 1.28.528 1.968.528.704 0 1.36-.176 1.968-.528.608-.352 1.096-.864 1.464-1.536.384-.688.576-1.488.576-2.4zm5.442-.048c0-1.328.272-2.504.816-3.528.56-1.024 1.312-1.816 2.256-2.376a6.042 6.042 0 013.168-.864c1.04 0 1.944.208 2.712.624.784.4 1.408.904 1.872 1.512v-1.92h2.76V20h-2.76v-1.968c-.464.624-1.096 1.144-1.896 1.56-.8.416-1.712.624-2.736.624a5.875 5.875 0 01-3.12-.864c-.944-.592-1.696-1.408-2.256-2.448-.544-1.056-.816-2.248-.816-3.576zm10.824.048c0-.912-.192-1.704-.576-2.376-.368-.672-.856-1.184-1.464-1.536a3.862 3.862 0 00-1.968-.528c-.704 0-1.36.176-1.968.528-.608.336-1.104.84-1.488 1.512-.368.656-.552 1.44-.552 2.352 0 .912.184 1.712.552 2.4.384.688.88 1.216 1.488 1.584.624.352 1.28.528 1.968.528.704 0 1.36-.176 1.968-.528.608-.352 1.096-.864 1.464-1.536.384-.688.576-1.488.576-2.4zM76.663 6.56c1.04 0 1.968.216 2.784.648a4.59 4.59 0 011.944 1.92c.464.848.696 1.872.696 3.072V20h-2.712v-7.392c0-1.184-.296-2.088-.888-2.712-.592-.64-1.4-.96-2.424-.96s-1.84.32-2.448.96c-.592.624-.888 1.528-.888 2.712V20h-2.736V6.776h2.736v1.512a4.549 4.549 0 011.704-1.272 5.57 5.57 0 012.232-.456zM88.77 9.008v7.32c0 .496.112.856.336 1.08.24.208.64.312 1.2.312h1.68V20h-2.16c-1.232 0-2.176-.288-2.832-.864-.656-.576-.984-1.512-.984-2.808v-7.32h-1.56V6.776h1.56V3.488h2.76v3.288h3.216v2.232H88.77zM95.611 20.168c-.496 0-.912-.168-1.248-.504a1.695 1.695 0 01-.504-1.248c0-.496.168-.912.504-1.248a1.695 1.695 0 011.248-.504c.48 0 .888.168 1.224.504.336.336.504.752.504 1.248s-.168.912-.504 1.248a1.666 1.666 0 01-1.224.504z"/></svg><svg viewBox="0 0 20 20" id="num" xmlns="http://www.w3.org/2000/svg"><g clip-path="url(#ia)"><circle cx="10" cy="10" r="10"/><path d="M6.928 14v-1.33l3.107-2.876c.264-.256.485-.486.664-.69a2.62 2.62 0 00.414-.601 1.49 1.49 0 00.14-.644c0-.255-.058-.475-.174-.66a1.147 1.147 0 00-.478-.43 1.496 1.496 0 00-.686-.154c-.267 0-.5.054-.699.162a1.116 1.116 0 00-.46.464 1.506 1.506 0 00-.162.72H6.843c0-.57.13-1.066.388-1.487A2.59 2.59 0 018.317 5.5c.466-.23 1.003-.346 1.611-.346.625 0 1.17.111 1.632.333a2.59 2.59 0 011.087.912c.258.389.388.835.388 1.338 0 .33-.066.655-.196.976-.128.32-.357.677-.687 1.07-.329.389-.793.856-1.393 1.401l-1.274 1.249v.06h3.665V14H6.928z"/></g><defs><clipPath id="ia"><path d="M0 0h20v20H0z"/></clipPath></defs></svg><svg viewBox="0 0 24 24" id="percent" xmlns="http://www.w3.org/2000/svg"><path d="M21.018 14.836l-.245.708.245-.708zm0-5.672l.245.71-.245-.71zM2.982 14.836l.245.708-.245-.708zm0-5.672l-.245.71.245-.71zm12.548.366a.75.75 0 00-1.06-1.06l1.06 1.06zm-7.06 4.94a.75.75 0 101.06 1.06l-1.06-1.06zM6 20.25A3.25 3.25 0 012.75 17h-1.5A4.75 4.75 0 006 21.75v-1.5zM21.25 17A3.25 3.25 0 0118 20.25v1.5A4.75 4.75 0 0022.75 17h-1.5zM18 3.75A3.25 3.25 0 0121.25 7h1.5A4.75 4.75 0 0018 2.25v1.5zM6 2.25A4.75 4.75 0 001.25 7h1.5A3.25 3.25 0 016 3.75v-1.5zm15.264 11.877A2.251 2.251 0 0119.75 12h-1.5a3.751 3.751 0 002.523 3.544l.49-1.417zM19.75 12a2.25 2.25 0 011.514-2.127l-.491-1.417A3.751 3.751 0 0018.25 12h1.5zm-15.5 0c0 .984-.632 1.822-1.513 2.127l.49 1.417A3.751 3.751 0 005.75 12h-1.5zM2.737 9.873A2.251 2.251 0 014.25 12h1.5a3.751 3.751 0 00-2.523-3.544l-.49 1.417zM22.75 8V7h-1.5v1h1.5zm-1.5 8v1h1.5v-1h-1.5zm-20 0v1h1.5v-1h-1.5zm1.5-8V7h-1.5v1h1.5zM18 20.25H6v1.5h12v-1.5zm0-18H6v1.5h12v-1.5zM2.737 14.127c-.68.235-1.487.87-1.487 1.873h1.5c0-.056.02-.13.102-.219a.92.92 0 01.375-.237l-.49-1.417zm18.527-4.254c.678-.235 1.486-.87 1.486-1.873h-1.5c0 .056-.02.13-.102.219a.921.921 0 01-.375.237l.49 1.417zM3.227 8.456a.921.921 0 01-.375-.237C2.77 8.129 2.75 8.056 2.75 8h-1.5c0 1.002.808 1.638 1.487 1.873l.49-1.417zm17.546 7.088a.92.92 0 01.375.237c.081.09.102.163.102.219h1.5c0-1.002-.808-1.638-1.486-1.873l-.491 1.417zM9.25 9a.25.25 0 01-.25.25v1.5A1.75 1.75 0 0010.75 9h-1.5zM9 9.25A.25.25 0 018.75 9h-1.5c0 .966.784 1.75 1.75 1.75v-1.5zM8.75 9A.25.25 0 019 8.75v-1.5A1.75 1.75 0 007.25 9h1.5zM9 8.75a.25.25 0 01.25.25h1.5A1.75 1.75 0 009 7.25v1.5zM15.25 15a.25.25 0 01-.25.25v1.5A1.75 1.75 0 0016.75 15h-1.5zm-.25.25a.25.25 0 01-.25-.25h-1.5c0 .966.784 1.75 1.75 1.75v-1.5zm-.25-.25a.25.25 0 01.25-.25v-1.5A1.75 1.75 0 0013.25 15h1.5zm.25-.25a.25.25 0 01.25.25h1.5A1.75 1.75 0 0015 13.25v1.5zm-.53-6.28l-6 6 1.06 1.06 6-6-1.06-1.06z"/></svg><svg viewBox="0 0 22 22" id="person" xmlns="http://www.w3.org/2000/svg"><path d="M17.559 18.549a7.003 7.003 0 00-13.118 0m13.118 0A9.976 9.976 0 0021 11c0-5.523-4.477-10-10-10S1 5.477 1 11a9.977 9.977 0 003.441 7.549m13.118 0A9.961 9.961 0 0111 21a9.961 9.961 0 01-6.559-2.451M14 8a3 3 0 11-6 0 3 3 0 016 0z"/></svg><svg viewBox="0 0 22 22" id="seacrh" xmlns="http://www.w3.org/2000/svg"><path d="M17.5 17.5L21 21m-1-10.5a9.5 9.5 0 10-19 0 9.5 9.5 0 0019 0z"/></svg><svg viewBox="0 0 269 24" id="ticket" xmlns="http://www.w3.org/2000/svg"><path d="M21.018 14.836l-.245.708.245-.708zm0-5.672l.245.71-.245-.71zM2.982 14.836l.245.708-.245-.708zm0-5.672l-.245.71.245-.71zm12.548.366a.75.75 0 00-1.06-1.06l1.06 1.06zm-7.06 4.94a.75.75 0 101.06 1.06l-1.06-1.06zM6 20.25A3.25 3.25 0 012.75 17h-1.5A4.75 4.75 0 006 21.75v-1.5zM21.25 17A3.25 3.25 0 0118 20.25v1.5A4.75 4.75 0 0022.75 17h-1.5zM18 3.75A3.25 3.25 0 0121.25 7h1.5A4.75 4.75 0 0018 2.25v1.5zM6 2.25A4.75 4.75 0 001.25 7h1.5A3.25 3.25 0 016 3.75v-1.5zm15.264 11.877A2.251 2.251 0 0119.75 12h-1.5a3.751 3.751 0 002.523 3.544l.49-1.417zM19.75 12a2.25 2.25 0 011.514-2.127l-.491-1.417A3.751 3.751 0 0018.25 12h1.5zm-15.5 0c0 .984-.632 1.822-1.513 2.127l.49 1.417A3.751 3.751 0 005.75 12h-1.5zM2.737 9.873A2.251 2.251 0 014.25 12h1.5a3.751 3.751 0 00-2.523-3.544l-.49 1.417zM22.75 8V7h-1.5v1h1.5zm-1.5 8v1h1.5v-1h-1.5zm-20 0v1h1.5v-1h-1.5zm1.5-8V7h-1.5v1h1.5zM18 20.25H6v1.5h12v-1.5zm0-18H6v1.5h12v-1.5zM2.737 14.127c-.68.235-1.487.87-1.487 1.873h1.5c0-.056.02-.13.102-.219a.92.92 0 01.375-.237l-.49-1.417zm18.527-4.254c.678-.235 1.486-.87 1.486-1.873h-1.5c0 .056-.02.13-.102.219a.921.921 0 01-.375.237l.49 1.417zM3.227 8.456a.921.921 0 01-.375-.237C2.77 8.129 2.75 8.056 2.75 8h-1.5c0 1.002.808 1.638 1.487 1.873l.49-1.417zm17.546 7.088a.92.92 0 01.375.237c.081.09.102.163.102.219h1.5c0-1.002-.808-1.638-1.486-1.873l-.491 1.417zM9.25 9a.25.25 0 01-.25.25v1.5A1.75 1.75 0 0010.75 9h-1.5zM9 9.25A.25.25 0 018.75 9h-1.5c0 .966.784 1.75 1.75 1.75v-1.5zM8.75 9A.25.25 0 019 8.75v-1.5A1.75 1.75 0 007.25 9h1.5zM9 8.75a.25.25 0 01.25.25h1.5A1.75 1.75 0 009 7.25v1.5zM15.25 15a.25.25 0 01-.25.25v1.5A1.75 1.75 0 0016.75 15h-1.5zm-.25.25a.25.25 0 01-.25-.25h-1.5c0 .966.784 1.75 1.75 1.75v-1.5zm-.25-.25a.25.25 0 01.25-.25v-1.5A1.75 1.75 0 0013.25 15h1.5zm.25-.25a.25.25 0 01.25.25h1.5A1.75 1.75 0 0015 13.25v1.5zm-.53-6.28l-6 6 1.06 1.06 6-6-1.06-1.06zM40.848 17.14c-.716 0-1.352-.123-1.91-.369-.553-.245-.99-.586-1.312-1.024a2.655 2.655 0 01-.512-1.516h1.87c.016.275.107.515.273.72.166.203.386.36.661.473.275.113.584.169.925.169.365 0 .688-.063.97-.189a1.59 1.59 0 00.66-.537c.16-.229.238-.492.234-.79a1.373 1.373 0 00-.238-.816 1.597 1.597 0 00-.706-.551c-.305-.133-.673-.2-1.104-.2h-.9v-1.42h.9c.355 0 .665-.062.93-.184.268-.123.479-.295.631-.517.153-.226.227-.486.224-.78a1.357 1.357 0 00-.194-.751 1.31 1.31 0 00-.552-.503 1.814 1.814 0 00-.83-.179c-.312 0-.6.057-.865.17a1.574 1.574 0 00-.642.482c-.162.205-.248.45-.258.736h-1.775c.013-.57.177-1.071.492-1.502a3.176 3.176 0 011.273-1.014c.53-.245 1.125-.368 1.785-.368.68 0 1.27.128 1.77.383.503.252.893.591 1.168 1.019.275.428.413.9.413 1.417.003.573-.166 1.054-.507 1.442-.339.387-.783.641-1.333.76v.08c.716.1 1.265.364 1.646.795.384.428.575.96.572 1.596 0 .57-.163 1.08-.488 1.531-.321.448-.765.8-1.332 1.054-.563.256-1.21.383-1.939.383zm9.229.054c-.82 0-1.522-.207-2.108-.622-.584-.417-1.033-1.019-1.348-1.804-.311-.79-.467-1.739-.467-2.849.003-1.11.16-2.055.472-2.834.315-.782.764-1.379 1.348-1.79.586-.41 1.287-.616 2.103-.616.815 0 1.516.205 2.102.616.587.411 1.036 1.008 1.348 1.79.315.782.472 1.727.472 2.834 0 1.114-.157 2.065-.472 2.854-.312.785-.76 1.385-1.348 1.8-.583.414-1.284.62-2.102.62zm0-1.556c.636 0 1.138-.313 1.506-.94.371-.63.557-1.556.557-2.779 0-.809-.085-1.488-.254-2.038-.169-.55-.408-.965-.716-1.243a1.567 1.567 0 00-1.093-.423c-.633 0-1.134.315-1.502.945-.368.626-.553 1.546-.557 2.759-.003.812.078 1.495.244 2.048.169.554.408.971.716 1.253a1.58 1.58 0 001.099.418zm11.018-.547v-.537a2.4 2.4 0 01.248-1.089 2.01 2.01 0 01.736-.8c.322-.202.711-.303 1.169-.303.47 0 .865.1 1.183.303.318.199.558.464.72.795.166.332.25.696.25 1.094v.537a2.4 2.4 0 01-.25 1.089 1.972 1.972 0 01-.73.8c-.318.202-.71.303-1.174.303-.464 0-.856-.1-1.178-.303a1.975 1.975 0 01-.73-.8 2.441 2.441 0 01-.244-1.09zm1.297-.537v.537c0 .262.063.502.19.72.125.22.347.329.666.329.321 0 .541-.108.66-.323.123-.219.185-.46.185-.726v-.537c0-.265-.058-.507-.174-.726-.116-.222-.34-.333-.671-.333-.312 0-.532.111-.662.333a1.4 1.4 0 00-.194.726zm-6.473-5.29v-.537c0-.397.085-.762.254-1.093.169-.332.414-.597.736-.796.321-.202.71-.303 1.168-.303.467 0 .86.1 1.178.303a1.9 1.9 0 01.726.796c.163.331.244.696.244 1.093v.537c0 .398-.083.763-.249 1.094a1.914 1.914 0 01-.726.79c-.321.2-.712.299-1.173.299-.467 0-.862-.1-1.183-.299a1.95 1.95 0 01-.726-.795 2.4 2.4 0 01-.249-1.089zm1.308-.537v.537c0 .265.061.507.184.726.126.216.348.323.666.323.318 0 .537-.107.656-.323a1.46 1.46 0 00.184-.726v-.537c0-.265-.058-.507-.174-.726-.116-.222-.338-.333-.666-.333-.315 0-.535.111-.661.333a1.447 1.447 0 00-.19.726zM56.487 17l7-10.182h1.242l-7 10.182h-1.243zm17.8.15c-.746 0-1.392-.165-1.939-.493a3.342 3.342 0 01-1.273-1.377c-.298-.59-.447-1.28-.447-2.068 0-.79.149-1.48.447-2.073a3.335 3.335 0 011.273-1.383c.547-.328 1.193-.492 1.939-.492s1.392.164 1.939.492c.547.329.97.79 1.268 1.383.301.593.452 1.284.452 2.073 0 .789-.15 1.478-.452 2.068a3.31 3.31 0 01-1.268 1.377c-.547.328-1.193.492-1.94.492zm.01-1.443c.404 0 .742-.11 1.014-.333.272-.225.474-.527.607-.905a3.71 3.71 0 00.203-1.262c0-.468-.067-.89-.203-1.268a2.007 2.007 0 00-.607-.91c-.272-.225-.61-.338-1.014-.338-.414 0-.76.113-1.034.338a2.041 2.041 0 00-.612.91 3.81 3.81 0 00-.199 1.268c0 .464.067.885.2 1.262.135.378.339.68.61.905.276.222.62.333 1.035.333zm9.044-6.343v1.392h-4.514V9.364h4.514zM79.956 17V8.643c0-.514.106-.942.318-1.283.215-.341.504-.597.865-.766a2.804 2.804 0 011.203-.253c.312 0 .588.025.83.074.242.05.421.095.537.135l-.358 1.392a3.114 3.114 0 00-.288-.07 1.743 1.743 0 00-.388-.04c-.334 0-.572.082-.71.244-.137.16-.205.388-.205.686V17h-1.804zm8.663-7.636v1.392h-4.514V9.364h4.514zM85.233 17V8.643c0-.514.106-.942.318-1.283a2.02 2.02 0 01.865-.766 2.804 2.804 0 011.204-.253c.311 0 .588.025.83.074.242.05.42.095.537.135l-.358 1.392a3.111 3.111 0 00-.289-.07 1.744 1.744 0 00-.387-.04c-.335 0-.572.082-.711.244-.136.16-.204.388-.204.686V17h-1.805zm14.303-5.618l-1.64.18a1.318 1.318 0 00-.244-.468 1.21 1.21 0 00-.457-.353 1.667 1.667 0 00-.706-.134c-.375 0-.69.08-.945.243-.252.162-.376.373-.373.632a.66.66 0 00.244.541c.169.14.447.254.835.344l1.303.278c.722.156 1.26.403 1.61.74.355.339.534.781.538 1.328-.004.48-.145.905-.423 1.273-.275.364-.658.65-1.149.855-.49.205-1.053.308-1.69.308-.935 0-1.687-.195-2.257-.587-.57-.394-.91-.942-1.02-1.645l1.756-.17c.08.346.248.606.507.781.258.176.595.264 1.01.264.427 0 .77-.088 1.028-.264.262-.175.393-.392.393-.65 0-.22-.084-.4-.253-.543-.166-.142-.425-.252-.776-.328l-1.303-.273c-.732-.153-1.274-.41-1.625-.77-.352-.366-.526-.826-.522-1.383-.004-.47.124-.878.382-1.223.262-.348.625-.617 1.09-.805.466-.193 1.005-.289 1.615-.289.895 0 1.6.19 2.113.572.517.381.837.896.96 1.546zm5.462-2.018v1.392h-4.39V9.364h4.39zm-3.306-1.83h1.799v7.17c0 .241.037.427.11.556a.587.587 0 00.298.258c.123.047.258.07.408.07a2.231 2.231 0 00.527-.07l.303 1.407a4.01 4.01 0 01-.413.11 3.38 3.38 0 01-.646.07 2.933 2.933 0 01-1.218-.204 1.895 1.895 0 01-.86-.706c-.209-.319-.312-.716-.308-1.194V7.534zm8.06 9.615c-.746 0-1.392-.164-1.939-.492a3.345 3.345 0 01-1.273-1.377c-.298-.59-.447-1.28-.447-2.068 0-.79.149-1.48.447-2.073a3.337 3.337 0 011.273-1.383c.547-.328 1.193-.492 1.939-.492s1.392.164 1.939.492c.547.329.969.79 1.267 1.383.302.593.453 1.284.453 2.073 0 .789-.151 1.478-.453 2.068a3.305 3.305 0 01-1.267 1.377c-.547.328-1.193.492-1.939.492zm.01-1.442c.404 0 .742-.11 1.014-.333.272-.225.474-.527.606-.905a3.7 3.7 0 00.204-1.262c0-.468-.068-.89-.204-1.268a2 2 0 00-.606-.91c-.272-.225-.61-.338-1.014-.338-.415 0-.759.113-1.034.338a2.041 2.041 0 00-.612.91c-.132.378-.199.8-.199 1.268 0 .464.067.885.199 1.262.136.378.34.68.612.905.275.222.619.333 1.034.333zM114.938 17V9.364h1.745v1.272h.08c.139-.44.378-.78.716-1.019a1.97 1.97 0 011.168-.363c.1 0 .211.005.333.015.126.007.231.018.314.035v1.655a1.92 1.92 0 00-.363-.07 3.35 3.35 0 00-.473-.034c-.328 0-.623.071-.885.214a1.57 1.57 0 00-.611.582 1.64 1.64 0 00-.224.86V17h-1.8zm8.617.15c-.765 0-1.426-.16-1.983-.478a3.228 3.228 0 01-1.278-1.362c-.298-.59-.447-1.285-.447-2.083 0-.786.149-1.475.447-2.069a3.389 3.389 0 011.263-1.392c.54-.334 1.175-.502 1.904-.502.471 0 .915.076 1.332.229.421.149.792.381 1.114.696.325.315.58.716.766 1.203.185.484.278 1.06.278 1.73v.552h-6.259v-1.213h4.534a1.93 1.93 0 00-.224-.92 1.632 1.632 0 00-.611-.641 1.722 1.722 0 00-.905-.234c-.368 0-.691.09-.97.269a1.853 1.853 0 00-.651.696c-.152.285-.23.598-.234.94v1.058c0 .444.082.825.244 1.144.162.315.389.556.681.726.292.165.633.248 1.024.248.262 0 .499-.036.711-.11.212-.075.396-.187.552-.332a1.39 1.39 0 00.353-.542l1.68.189a2.622 2.622 0 01-.606 1.163 2.957 2.957 0 01-1.134.766c-.46.179-.987.268-1.581.268zm6.454-.15l-2.158-7.636h1.834l1.343 5.369h.069l1.372-5.37h1.815l1.372 5.34h.075l1.322-5.34h1.84L136.73 17h-1.874l-1.432-5.16h-.104L131.888 17h-1.879zm10.14 0V9.364h1.8V17h-1.8zm.905-8.72c-.285 0-.53-.095-.736-.284a.915.915 0 01-.308-.69c0-.272.103-.503.308-.692.206-.192.451-.288.736-.288.289 0 .534.096.736.288.205.19.308.42.308.691a.915.915 0 01-.308.691 1.038 1.038 0 01-.736.284zm5.58 8.854a2.89 2.89 0 01-1.611-.462c-.474-.308-.849-.756-1.124-1.343-.275-.586-.412-1.299-.412-2.137 0-.849.139-1.565.417-2.148.282-.587.661-1.03 1.139-1.327a2.924 2.924 0 011.595-.453c.448 0 .816.076 1.104.229.289.149.517.33.686.542.169.209.3.406.393.591h.075V6.818h1.804V17h-1.77v-1.203h-.109a3.071 3.071 0 01-.403.591 2.2 2.2 0 01-.696.527c-.288.146-.651.22-1.088.22zm.502-1.476c.381 0 .706-.103.974-.309.269-.208.472-.498.612-.87.139-.37.208-.803.208-1.297 0-.494-.069-.923-.208-1.288-.136-.364-.338-.648-.607-.85-.265-.202-.592-.303-.979-.303-.401 0-.736.104-1.005.313a1.9 1.9 0 00-.606.865 3.628 3.628 0 00-.204 1.263c0 .477.068.903.204 1.277.139.372.343.665.611.88.272.213.605.319 1 .319zm8.863 1.491c-.766 0-1.427-.159-1.984-.477a3.24 3.24 0 01-1.278-1.362c-.298-.59-.447-1.285-.447-2.083 0-.786.149-1.475.447-2.069A3.389 3.389 0 01154 9.766c.54-.334 1.175-.502 1.904-.502.471 0 .915.076 1.333.229a3 3 0 011.113.696c.325.315.58.716.766 1.203.186.484.278 1.06.278 1.73v.552h-6.259v-1.213h4.534a1.93 1.93 0 00-.224-.92 1.618 1.618 0 00-.611-.641 1.72 1.72 0 00-.905-.234c-.368 0-.691.09-.969.269a1.848 1.848 0 00-.652.696c-.152.285-.23.598-.233.94v1.058c0 .444.081.825.243 1.144.163.315.39.556.681.726a2.05 2.05 0 001.025.248c.261 0 .498-.036.711-.11a1.56 1.56 0 00.551-.332c.156-.146.274-.327.353-.542l1.681.189a2.613 2.613 0 01-.607 1.163 2.961 2.961 0 01-1.133.766c-.461.179-.988.268-1.581.268zm21.466-5.98v1.48h-14v-1.48h14zM181.942 17V6.818h1.844v8.636h4.485V17h-6.329zm7.85 0V9.364h1.8V17h-1.8zm.905-8.72a1.05 1.05 0 01-.736-.284.911.911 0 01-.308-.69c0-.272.102-.503.308-.692a1.04 1.04 0 01.736-.288c.288 0 .533.096.736.288.205.19.308.42.308.691a.915.915 0 01-.308.691 1.041 1.041 0 01-.736.284zm2.745 8.72V9.364h1.72v1.297h.09a2.03 2.03 0 01.79-1.024c.368-.249.807-.373 1.318-.373.517 0 .953.126 1.307.378.358.249.61.588.756 1.02h.08c.169-.425.454-.763.855-1.015.404-.255.883-.383 1.437-.383.702 0 1.276.222 1.72.666.444.444.666 1.093.666 1.944V17h-1.805v-4.847c0-.474-.126-.82-.378-1.04a1.347 1.347 0 00-.924-.332c-.434 0-.774.135-1.019.407-.242.269-.363.618-.363 1.05V17h-1.765v-4.922c0-.394-.12-.71-.358-.944-.236-.236-.544-.354-.925-.354-.259 0-.494.067-.706.2a1.388 1.388 0 00-.507.551c-.126.236-.189.51-.189.825V17h-1.8zm12.565 0V9.364h1.799V17h-1.799zm.905-8.72a1.05 1.05 0 01-.736-.284.911.911 0 01-.308-.69c0-.272.102-.503.308-.692a1.04 1.04 0 01.736-.288c.288 0 .533.096.735.288.206.19.309.42.309.691a.912.912 0 01-.309.691 1.037 1.037 0 01-.735.284zm6.558 1.084v1.392h-4.39V9.364h4.39zm-3.306-1.83h1.8v7.17c0 .241.036.427.109.556a.593.593 0 00.299.258c.122.047.258.07.407.07a2.138 2.138 0 00.527-.07l.304 1.407c-.097.034-.234.07-.413.11-.176.04-.391.063-.646.07a2.933 2.933 0 01-1.218-.204 1.898 1.898 0 01-.861-.706c-.208-.319-.311-.716-.308-1.194V7.534zm8.11 9.615c-.765 0-1.427-.159-1.984-.477a3.232 3.232 0 01-1.277-1.362c-.299-.59-.448-1.285-.448-2.083 0-.786.149-1.475.448-2.069a3.375 3.375 0 011.263-1.392c.54-.334 1.175-.502 1.904-.502.47 0 .914.076 1.332.229.421.149.792.381 1.114.696.325.315.58.716.765 1.203.186.484.279 1.06.279 1.73v.552h-6.259v-1.213h4.534a1.942 1.942 0 00-.224-.92 1.627 1.627 0 00-.612-.641 1.716 1.716 0 00-.904-.234c-.368 0-.692.09-.97.269a1.853 1.853 0 00-.651.696 1.993 1.993 0 00-.234.94v1.058c0 .444.081.825.244 1.144.162.315.389.556.681.726.292.165.633.248 1.024.248.262 0 .499-.036.711-.11.212-.075.396-.187.552-.332a1.39 1.39 0 00.353-.542l1.68.189a2.622 2.622 0 01-.606 1.163 2.957 2.957 0 01-1.134.766c-.461.179-.988.268-1.581.268zm7.752-.015a2.89 2.89 0 01-1.611-.462c-.474-.308-.848-.756-1.123-1.343-.275-.586-.413-1.299-.413-2.137 0-.849.139-1.565.418-2.148.281-.587.661-1.03 1.138-1.327a2.925 2.925 0 011.596-.453c.448 0 .815.076 1.104.229.288.149.517.33.686.542.169.209.3.406.393.591h.074V6.818h1.805V17h-1.77v-1.203h-.109a3.071 3.071 0 01-.403.591 2.224 2.224 0 01-.696.527c-.288.146-.651.22-1.089.22zm.502-1.476c.381 0 .706-.103.975-.309.268-.208.472-.498.611-.87.139-.37.209-.803.209-1.297 0-.494-.07-.923-.209-1.288-.136-.364-.338-.648-.606-.85-.266-.202-.592-.303-.98-.303-.401 0-.736.104-1.004.313a1.901 1.901 0 00-.607.865 3.652 3.652 0 00-.203 1.263c0 .477.068.903.203 1.277a2 2 0 00.612.88c.272.213.605.319.999.319zm12.769-6.294v1.392h-4.39V9.364h4.39zm-3.307-1.83h1.8v7.17c0 .241.037.427.11.556a.587.587 0 00.298.258c.122.047.258.07.407.07a2.138 2.138 0 00.527-.07l.304 1.407a4.01 4.01 0 01-.413.11c-.176.04-.391.063-.646.07a2.933 2.933 0 01-1.218-.204 1.89 1.89 0 01-.86-.706c-.209-.319-.312-.716-.309-1.194V7.534zM240.802 17V9.364h1.799V17h-1.799zm.904-8.72c-.285 0-.53-.095-.735-.284a.912.912 0 01-.309-.69c0-.272.103-.503.309-.692.205-.192.45-.288.735-.288.289 0 .534.096.736.288.206.19.309.42.309.691a.912.912 0 01-.309.691 1.038 1.038 0 01-.736.284zm2.746 8.72V9.364h1.72v1.297h.09c.159-.437.422-.779.79-1.024.368-.249.807-.373 1.318-.373.517 0 .953.126 1.307.378.358.249.61.588.756 1.02h.079a2.09 2.09 0 01.856-1.015c.404-.255.883-.383 1.436-.383.703 0 1.276.222 1.721.666.444.444.666 1.093.666 1.944V17h-1.805v-4.847c0-.474-.126-.82-.378-1.04a1.35 1.35 0 00-.925-.332c-.434 0-.773.135-1.019.407-.242.269-.363.618-.363 1.05V17h-1.765v-4.922c0-.394-.119-.71-.358-.944-.235-.236-.543-.354-.924-.354-.259 0-.494.067-.706.2a1.388 1.388 0 00-.507.551c-.126.236-.189.51-.189.825V17h-1.8zm15.945.15c-.765 0-1.427-.16-1.983-.478a3.228 3.228 0 01-1.278-1.362c-.298-.59-.448-1.285-.448-2.083 0-.786.15-1.475.448-2.069a3.375 3.375 0 011.263-1.392c.54-.334 1.175-.502 1.904-.502.47 0 .915.076 1.332.229.421.149.792.381 1.114.696.325.315.58.716.765 1.203.186.484.279 1.06.279 1.73v.552h-6.259v-1.213h4.534a1.942 1.942 0 00-.224-.92 1.627 1.627 0 00-.612-.641 1.716 1.716 0 00-.904-.234c-.368 0-.691.09-.97.269a1.853 1.853 0 00-.651.696c-.153.285-.23.598-.234.94v1.058c0 .444.081.825.244 1.144.162.315.389.556.681.726.292.165.633.248 1.024.248.262 0 .499-.036.711-.11.212-.075.396-.187.552-.332a1.39 1.39 0 00.353-.542l1.68.189a2.622 2.622 0 01-.606 1.163 2.957 2.957 0 01-1.134.766c-.461.179-.988.268-1.581.268zm7.121-10.332l-.164 7.19h-1.601l-.159-7.19h1.924zm-.965 10.291c-.301 0-.56-.106-.775-.318a1.056 1.056 0 01-.318-.775c0-.299.106-.554.318-.766.215-.212.474-.318.775-.318.295 0 .55.106.766.318.219.212.328.467.328.766 0 .202-.051.386-.154.552-.1.165-.232.298-.398.397a1.043 1.043 0 01-.542.144z"/></svg><svg viewBox="0 0 24 24" id="youtube" xmlns="http://www.w3.org/2000/svg"><rect x="2" y="3" width="20" height="18" rx="4"/><path d="M10.447 8.724l4.764 2.382a1 1 0 010 1.788l-4.764 2.382A1 1 0 019 14.382V9.618a1 1 0 011.447-.894z"/></svg><svg viewBox="0 0 24 24" id="youtube-2" xmlns="http://www.w3.org/2000/svg"><rect x="2" y="3" width="20" height="18" rx="4"/><path d="M10.447 8.724l4.764 2.382a1 1 0 010 1.788l-4.764 2.382A1 1 0 019 14.382V9.618a1 1 0 011.447-.894z"/></svg></svg>